<svg width="110" height="111" viewBox="0 0 110 111" fill="none" xmlns="http://www.w3.org/2000/svg">
<path d="M101.746 77.3086C101.739 74.5481 101.475 72.2298 101.108 70.0221L109.183 65.6997L104.519 55.771L97.4728 59.5945C94.6268 55.0176 90.9109 52.4853 87.7137 51.2769L91.0833 40.449L81.2861 36.9349L77.4063 49.5306C70.5532 48.8264 66.4759 46.0187 64.0464 42.9869L73.0476 38.1658L68.3837 28.2371L60.4115 32.6145C60.0433 28.6263 58.7583 24.797 56.6715 21.4693L64.6202 8.64475L56.052 2.5333L48.8215 14.2523C46.3454 12.9873 43.3549 11.9994 39.7476 11.5097L39.7159 0.136329L29.4135 0.156696L29.4458 11.7509C25.7908 12.5863 22.9106 14.1931 20.8043 16.24L7.26769 1.80159L0.0263504 9.65582L15.2677 25.8576C14.0429 29.9456 14.0523 33.3135 14.0523 33.3135L3.74982 33.3338L3.78064 44.3759L14.2891 44.3551C14.6079 47.8328 15.1858 51.862 16.1767 56.2217L2.17925 61.2183L5.4538 71.7019L19.2967 66.7056C20.5409 69.5188 21.8882 72.3871 23.5443 75.1444L11.3089 83.9471L17.0523 93.1007L30.0075 83.7997C32.9008 86.8858 36.3083 89.6396 40.2814 92.0058L35.3656 102.561L44.6002 107.511L49.7206 96.4592L48.895 95.9639C53.7936 97.721 59.3603 98.9246 65.7489 99.2985L65.7802 110.506L76.0826 110.486L76.0507 99.0572C79.9643 98.5526 85.3699 97.4377 90.3082 94.9435L98.1615 103.32L105.403 95.4657L98.531 88.0811C100.481 85.2615 101.759 81.7255 101.746 77.3086ZM37.279 49.8308C35.2297 49.8348 33.2619 48.9662 31.8085 47.4159C30.3551 45.8657 29.5352 43.7609 29.529 41.5645C29.5229 39.3681 30.3311 37.26 31.7758 35.7041C33.2205 34.1481 35.1835 33.2717 37.2327 33.2676C39.282 33.2636 41.2498 34.1322 42.7032 35.6825C44.1566 37.2327 44.9765 39.3375 44.9827 41.5339C44.9888 43.7303 44.1806 45.8384 42.7359 47.3943C41.2912 48.9503 39.3283 49.8267 37.279 49.8308ZM50.2032 66.3684C48.8371 66.3711 47.5252 65.792 46.5563 64.7585C45.5873 63.725 45.0407 62.3218 45.0366 60.8576C45.0325 59.3933 45.5713 57.9879 46.5345 56.9506C47.4976 55.9133 48.8062 55.329 50.1724 55.3263C51.5386 55.3236 52.8505 55.9027 53.8194 56.9362C54.7883 57.9697 55.335 59.3729 55.3391 60.8372C55.3431 62.3015 54.8043 63.7068 53.8412 64.7441C52.878 65.7814 51.5694 66.3657 50.2032 66.3684ZM73.43 82.8857C71.3807 82.8897 69.4129 82.0211 67.9595 80.4709C66.5061 78.9207 65.6861 76.8158 65.68 74.6194C65.6739 72.423 66.4821 70.315 67.9268 68.759C69.3715 67.203 71.3345 66.3266 73.3837 66.3226C75.433 66.3185 77.4008 67.1872 78.8542 68.7374C80.3076 70.2876 81.1275 72.3925 81.1337 74.5889C81.1398 76.7853 80.3316 78.8933 78.8869 80.4493C77.4421 82.0052 75.4792 82.8816 73.43 82.8857Z" fill="#40F99B"/>
</svg>
