<svg width="22" height="28" viewBox="0 0 22 28" fill="none" xmlns="http://www.w3.org/2000/svg">
<path d="M10.9993 16.1108C14.614 16.1108 17.0979 17.9308 18.5941 21.6731C19.1883 23.1592 19.5028 24.6723 19.6701 25.8462H2.32995C2.49322 24.6952 2.79835 23.2185 3.36711 21.7673C4.85796 17.9604 7.35519 16.1108 10.9993 16.1108ZM10.9993 13.9569C0 13.9569 0 28 0 28H22C22 28 22 13.9569 10.9993 13.9569Z" fill="black"/>
<path d="M10.9471 2.15385C13.2517 2.15385 15.1279 4.03981 15.1279 6.35923C15.1279 8.67865 13.253 10.5646 10.9471 10.5646C8.64128 10.5646 6.76635 8.67731 6.76635 6.35923C6.76635 4.04115 8.64262 2.15385 10.9471 2.15385ZM10.9471 0C7.45556 0 4.6251 2.84712 4.6251 6.35923C4.6251 9.87135 7.45556 12.7185 10.9471 12.7185C14.4387 12.7185 17.2692 9.87135 17.2692 6.35923C17.2692 2.84712 14.4387 0 10.9471 0Z" fill="black"/>
</svg>
