<svg width="55" height="55" viewBox="0 0 55 55" fill="none" xmlns="http://www.w3.org/2000/svg">
<circle cx="27.5" cy="27.5" r="27.5" fill="white"/>
<path d="M27.5001 18.8873C22.734 18.8873 18.8875 22.7338 18.8875 27.4999C18.8875 32.266 22.734 36.1125 27.5001 36.1125C32.2662 36.1125 36.1127 32.266 36.1127 27.4999C36.1127 22.7338 32.2662 18.8873 27.5001 18.8873ZM27.5001 33.0974C24.4178 33.0974 21.9025 30.5821 21.9025 27.4999C21.9025 24.4177 24.4178 21.9023 27.5001 21.9023C30.5823 21.9023 33.0976 24.4177 33.0976 27.4999C33.0976 30.5821 30.5823 33.0974 27.5001 33.0974ZM36.4654 16.5273C35.3526 16.5273 34.454 17.426 34.454 18.5387C34.454 19.6515 35.3526 20.5502 36.4654 20.5502C37.5782 20.5502 38.4768 19.6557 38.4768 18.5387C38.4772 18.2745 38.4254 18.0128 38.3244 17.7686C38.2234 17.5244 38.0753 17.3026 37.8884 17.1157C37.7016 16.9289 37.4797 16.7807 37.2355 16.6798C36.9914 16.5788 36.7296 16.527 36.4654 16.5273ZM44.2886 27.4999C44.2886 25.1819 44.3096 22.8849 44.1794 20.5712C44.0492 17.8837 43.4361 15.4985 41.4709 13.5333C39.5014 11.5638 37.1205 10.955 34.433 10.8248C32.115 10.6946 29.818 10.7156 27.5043 10.7156C25.1863 10.7156 22.8893 10.6946 20.5756 10.8248C17.8881 10.955 15.5029 11.568 13.5377 13.5333C11.5682 15.5027 10.9594 17.8837 10.8292 20.5712C10.699 22.8891 10.72 25.1861 10.72 27.4999C10.72 29.8137 10.699 32.1148 10.8292 34.4286C10.9594 37.1161 11.5724 39.5012 13.5377 41.4665C15.5071 43.4359 17.8881 44.0448 20.5756 44.175C22.8935 44.3051 25.1905 44.2842 27.5043 44.2842C29.8222 44.2842 32.1192 44.3051 34.433 44.175C37.1205 44.0448 39.5056 43.4317 41.4709 41.4665C43.4403 39.497 44.0492 37.1161 44.1794 34.4286C44.3138 32.1148 44.2886 29.8178 44.2886 27.4999ZM40.5932 37.4016C40.2867 38.1659 39.9172 38.737 39.3251 39.3249C38.733 39.917 38.1661 40.2865 37.4018 40.593C35.193 41.4707 29.9482 41.2733 27.5001 41.2733C25.0519 41.2733 19.8029 41.4707 17.5941 40.5972C16.8299 40.2907 16.2588 39.9212 15.6709 39.3291C15.0788 38.737 14.7093 38.1701 14.4027 37.4058C13.5293 35.1928 13.7266 29.948 13.7266 27.4999C13.7266 25.0517 13.5293 19.8027 14.4027 17.5939C14.7093 16.8297 15.0788 16.2586 15.6709 15.6707C16.263 15.0828 16.8299 14.7091 17.5941 14.4025C19.8029 13.5291 25.0519 13.7264 27.5001 13.7264C29.9482 13.7264 35.1972 13.5291 37.406 14.4025C38.1703 14.7091 38.7414 15.0786 39.3293 15.6707C39.9214 16.2628 40.2909 16.8297 40.5974 17.5939C41.4709 19.8027 41.2735 25.0517 41.2735 27.4999C41.2735 29.948 41.4709 35.1928 40.5932 37.4016Z" fill="black"/>
</svg>
