<svg width="55" height="55" viewBox="0 0 55 55" fill="none" xmlns="http://www.w3.org/2000/svg">
<circle cx="27.5" cy="27.5" r="27.5" fill="white"/>
<path d="M27.5 10.3193C21.5617 10.3193 16.75 15.1117 16.75 21.0478C16.75 31.3119 27.5 44.6978 27.5 44.6978C27.5 44.6978 38.25 31.3098 38.25 21.0478C38.25 15.1138 33.4383 10.3193 27.5 10.3193ZM27.5 26.984C25.9604 26.984 24.4839 26.3724 23.3952 25.2837C22.3066 24.1951 21.695 22.7186 21.695 21.179C21.695 19.6394 22.3066 18.1629 23.3952 17.0742C24.4839 15.9856 25.9604 15.374 27.5 15.374C29.0396 15.374 30.5161 15.9856 31.6048 17.0742C32.6934 18.1629 33.305 19.6394 33.305 21.179C33.305 22.7186 32.6934 24.1951 31.6048 25.2837C30.5161 26.3724 29.0396 26.984 27.5 26.984Z" fill="black"/>
</svg>
