<svg width="25" height="24" viewBox="0 0 25 24" fill="none" xmlns="http://www.w3.org/2000/svg">
<path d="M20.4856 0H17.2639L8.09513 6.19184H5.9264L8.3528 0H5.62579L0 14.3356H2.727L5.17487 8.12388H7.42948L11.1737 11.5367L11.9083 9.6652L9.8344 7.3864L20.4856 0Z" fill="black"/>
<path d="M19.8969 9.66437H11.9091L11.1746 11.5359H18.8447C21.4429 11.5359 22.3018 12.173 21.6362 13.8852C21.0349 15.5376 19.3386 15.9358 16.5686 15.9358H12.1668L13.1662 13.4073H10.44L6.28333 24H16.2895C19.2527 24 21.6362 23.2833 22.6024 20.9339C23.354 19.0425 22.6024 17.4091 20.4766 16.8716C22.3662 16.4933 23.719 15.5974 24.3417 14.0444C25.3294 11.5159 23.9552 9.66437 19.8969 9.66437ZM20.0901 20.3566C19.5533 21.7104 18.3938 22.1285 15.6024 22.1285H9.7404L11.4797 17.6879H16.7834C19.6607 17.6879 20.7558 18.6045 20.0901 20.3566Z" fill="black"/>
</svg>
