<svg width="122" height="110" viewBox="0 0 122 110" fill="none" xmlns="http://www.w3.org/2000/svg">
<path d="M64.8169 18.0051C69.8739 14.7149 75.74 13.0698 82.3647 13.0698C86.0058 13.0698 90.0008 13.9381 94.3498 15.766C98.6989 17.5482 102.138 19.6502 104.666 22.0722C109.875 27.9215 112.049 34.7304 111.291 42.499C110.482 50.2676 107.65 56.3454 102.744 60.641L64.3618 95.3254C63.4009 96.1936 62.1873 96.6049 60.7713 96.6049C59.3553 96.6049 58.1922 96.1936 57.2314 95.3254C56.7643 94.909 56.3975 94.41 56.1538 93.8596C55.9102 93.3091 55.795 92.7191 55.8154 92.1266C55.8154 90.847 56.2706 89.7503 57.2314 88.882L80.4431 67.9069C81.7073 66.9015 81.7073 65.8505 80.4431 64.708C79.1788 63.5656 78.0157 63.5656 76.9032 64.708L53.6915 85.6832C53.2234 86.1092 52.6627 86.4429 52.0447 86.6631C51.4267 86.8834 50.7649 86.9854 50.101 86.9627C48.685 86.9627 47.5219 86.5515 46.5611 85.6832C46.094 85.2669 45.7272 84.7678 45.4835 84.2174C45.2399 83.6669 45.1247 83.0769 45.1451 82.4844C45.1451 81.2048 45.6003 80.1081 46.5611 79.2399L69.7728 58.2647C71.1382 57.1222 71.1382 55.9798 69.7728 54.8374C68.6097 53.6949 67.4971 53.6949 66.2329 54.8374L43.0212 76.041C42.5478 76.4605 41.9862 76.7898 41.3695 77.0096C40.7527 77.2294 40.0935 77.3351 39.4307 77.3206C38.0147 77.3206 36.8011 76.9093 35.7391 76.041C34.7277 75.1728 34.222 74.1217 34.222 72.8422C34.222 71.5627 34.7783 70.4202 35.8908 69.4149L59.153 48.394C60.4173 47.2516 60.4173 46.2005 59.153 45.1952C57.8888 44.1898 56.6751 44.1898 55.5626 45.1952L32.098 66.2617C30.9855 67.1757 29.8224 67.6784 28.5581 67.6784C27.1422 67.6784 25.9285 67.2214 25.0182 66.2617C24.0574 65.3478 23.5517 64.2511 23.5517 62.9715C23.5517 61.692 24.0574 60.6409 25.0182 59.7727C40.4927 45.6978 50.0504 37.1981 53.6915 34.045L71.6944 50.1305C73.6667 51.8213 75.9423 52.6896 78.7237 52.6896C82.2636 52.6896 85.0449 51.41 87.1183 48.851C88.5343 46.9774 89.04 44.921 88.6354 42.6361C88.2309 40.3512 87.1689 38.4319 85.4495 36.8325L64.8169 18.0051ZM75.2343 46.9317L53.6915 27.4188L17.8878 59.7727C13.64 55.8884 11.2126 49.9477 10.6563 41.8593C10.1 33.8165 12.5274 26.8248 17.8878 20.9755C23.9057 15.5832 31.0866 12.8413 39.4307 12.8413C47.8253 12.8413 54.9557 15.5832 60.7713 20.9755L82.3647 40.4883C83.3256 41.3566 83.7807 42.4076 83.7807 43.6872C83.7807 44.9667 83.3256 46.0634 82.3647 46.9317C81.4039 47.7542 80.2408 48.2112 78.7237 48.2112C77.3583 48.2112 76.1952 47.7542 75.2343 46.9317Z" fill="#40F99B"/>
</svg>
