<svg width="55" height="55" viewBox="0 0 55 55" fill="none" xmlns="http://www.w3.org/2000/svg">
<circle cx="27.5" cy="27.5" r="27.5" fill="white"/>
<path d="M45.3773 16.427C44.0625 16.9942 42.6316 17.4024 41.1578 17.5613C42.688 16.6523 43.8339 15.2161 44.3805 13.5223C42.9446 14.3765 41.3716 14.9754 39.7312 15.2926C39.0457 14.5597 38.2165 13.9758 37.2954 13.5773C36.3742 13.1789 35.3809 12.9744 34.3773 12.9766C30.3168 12.9766 27.0512 16.268 27.0512 20.307C27.0512 20.8742 27.1199 21.4414 27.2316 21.9871C21.1516 21.6692 15.7289 18.7645 12.1238 14.3172C11.4669 15.4392 11.1227 16.7167 11.127 18.0168C11.127 20.5606 12.4203 22.8035 14.3926 24.1227C13.2303 24.0769 12.0952 23.7574 11.0797 23.1903V23.2805C11.0797 26.8426 13.5977 29.7945 16.9535 30.4735C16.3234 30.6371 15.6752 30.7209 15.0242 30.7227C14.5473 30.7227 14.0961 30.6754 13.6406 30.611C14.5687 33.5156 17.2715 35.6254 20.4898 35.6942C17.9719 37.6664 14.818 38.8266 11.3934 38.8266C10.7789 38.8266 10.2117 38.8051 9.62305 38.7363C12.8715 40.8203 16.7258 42.0235 20.8766 42.0235C34.3516 42.0235 41.725 30.8602 41.725 21.1707C41.725 20.8528 41.725 20.5348 41.7035 20.2168C43.1301 19.1727 44.3805 17.8793 45.3773 16.427Z" fill="black"/>
</svg>
