<svg width="55" height="55" viewBox="0 0 55 55" fill="none" xmlns="http://www.w3.org/2000/svg">
<circle cx="27.5" cy="27.5" r="27.5" fill="white"/>
<path d="M45.3772 16.427C44.0623 16.9942 42.6315 17.4024 41.1576 17.5613C42.6878 16.6523 43.8337 15.2161 44.3803 13.5223C42.9444 14.3765 41.3714 14.9754 39.7311 15.2926C39.0455 14.5597 38.2163 13.9758 37.2952 13.5773C36.3741 13.1789 35.3808 12.9744 34.3772 12.9766C30.3166 12.9766 27.051 16.268 27.051 20.307C27.051 20.8742 27.1197 21.4414 27.2315 21.9871C21.1514 21.6692 15.7287 18.7645 12.1236 14.3172C11.4668 15.4392 11.1225 16.7167 11.1268 18.0168C11.1268 20.5606 12.4201 22.8035 14.3924 24.1227C13.2301 24.0769 12.095 23.7574 11.0795 23.1903V23.2805C11.0795 26.8426 13.5975 29.7945 16.9533 30.4735C16.3232 30.6371 15.675 30.7209 15.024 30.7227C14.5471 30.7227 14.0959 30.6754 13.6404 30.611C14.5686 33.5156 17.2713 35.6254 20.4897 35.6942C17.9717 37.6664 14.8178 38.8266 11.3932 38.8266C10.7787 38.8266 10.2115 38.8051 9.62286 38.7363C12.8713 40.8203 16.7256 42.0235 20.8764 42.0235C34.3514 42.0235 41.7248 30.8602 41.7248 21.1707C41.7248 20.8528 41.7248 20.5348 41.7033 20.2168C43.1299 19.1727 44.3803 17.8793 45.3772 16.427Z" fill="black"/>
</svg>
