<svg width="273" height="59" viewBox="0 0 273 59" fill="none" xmlns="http://www.w3.org/2000/svg">
<path fill-rule="evenodd" clip-rule="evenodd" d="M106.126 0C86.7158 0 75.5114 8.66033 68.8046 27.0045C62.4922 43.9348 67.8577 58.5787 93.0282 58.5787C112.36 58.5787 123.564 49.9183 130.35 31.5709C136.583 14.6438 131.218 0 106.126 0ZM119.639 32.988C113.942 46.5002 105.957 50.9418 93.6594 50.9418C79.3616 50.9418 74.3729 44.3599 77.004 32.988H119.639ZM122.114 25.5873H79.4744C85.1076 12.0927 93.0943 7.63685 105.337 7.63685C119.727 7.63685 124.717 14.2395 122.114 25.5873ZM75.278 0.944809H63.4391L29.7469 25.43H21.7776L30.6938 0.944809H20.6729L0 57.634H10.0208L19.0159 33.0701H27.3009L44.9755 57.634H55.7854L36.1382 30.1538L75.278 0.944809ZM155.363 0.944809H184.715C199.628 0.944809 204.678 8.26674 201.048 18.2655C198.76 24.4065 193.789 27.9493 186.846 29.4452C194.657 31.5709 197.419 38.0301 194.657 45.5095C191.106 54.7997 182.348 57.634 171.459 57.634H134.69L149.964 15.7461H159.982L156.31 25.7449H172.485C182.664 25.7449 188.897 24.1703 191.106 17.6357C193.552 10.8648 190.396 8.34547 180.849 8.34547H152.663L155.363 0.944809ZM168.934 50.2333C179.192 50.2333 183.453 48.58 185.425 43.2263C187.871 36.298 183.847 32.6732 173.274 32.6732H153.785L147.393 50.2333H168.934ZM254.546 0.944809H225.193L222.494 8.34547H250.679C260.227 8.34547 263.383 10.8648 260.937 17.6357C258.728 24.1703 252.494 25.7449 242.315 25.7449H226.14L229.812 15.7461H219.795L204.52 57.634H241.29C252.178 57.634 260.937 54.7997 264.488 45.5095C267.249 38.0301 264.488 31.5709 256.676 29.4452C263.62 27.9493 268.591 24.4065 270.879 18.2655C274.508 8.26674 269.459 0.944809 254.546 0.944809ZM255.256 43.2263C253.283 48.58 249.022 50.2333 238.765 50.2333H217.224L223.615 32.6732H243.104C253.678 32.6732 257.702 36.298 255.256 43.2263Z" fill="black"/>
</svg>
