<svg width="109" height="94" viewBox="0 0 109 94" fill="none" xmlns="http://www.w3.org/2000/svg">
<path d="M86.2917 71.7143V78.3334C86.2917 80.411 85.3347 82.4034 83.6313 83.8724C81.9278 85.3415 79.6174 86.1668 77.2084 86.1668H31.7917C29.3827 86.1668 27.0723 85.3415 25.3688 83.8724C23.6654 82.4034 22.7084 80.411 22.7084 78.3334V63.8418C20.6192 63.1368 17.9396 62.6668 13.625 62.6668C12.4205 62.6668 11.2653 62.2541 10.4136 61.5196C9.56187 60.7851 9.08337 59.7889 9.08337 58.7501C9.08337 57.7114 9.56187 56.7151 10.4136 55.9806C11.2653 55.2461 12.4205 54.8335 13.625 54.8335C17.3492 54.8335 20.3013 55.1468 22.7084 55.656V48.1751C20.6192 47.4701 17.9396 47.0001 13.625 47.0001C12.4205 47.0001 11.2653 46.5875 10.4136 45.853C9.56187 45.1185 9.08337 44.1222 9.08337 43.0835C9.08337 42.0447 9.56187 41.0485 10.4136 40.314C11.2653 39.5795 12.4205 39.1668 13.625 39.1668C17.3492 39.1668 20.3013 39.4801 22.7084 39.9893V32.5085C20.6192 31.8035 17.9396 31.3335 13.625 31.3335C12.4205 31.3335 11.2653 30.9208 10.4136 30.1863C9.56187 29.4518 9.08337 28.4556 9.08337 27.4168C9.08337 26.378 9.56187 25.3818 10.4136 24.6473C11.2653 23.9128 12.4205 23.5002 13.625 23.5002C17.3492 23.5002 20.3013 23.8135 22.7084 24.3227V15.6668C22.7084 13.5893 23.6654 11.5969 25.3688 10.1278C27.0723 8.65879 29.3827 7.8335 31.7917 7.8335H77.2084C79.6174 7.8335 81.9278 8.65879 83.6313 10.1278C85.3347 11.5969 86.2917 13.5893 86.2917 15.6668V24.1268C94.3759 25.341 97.8275 27.926 98.5996 28.5526C100.371 30.0801 100.371 32.5868 98.5996 34.1143C96.8284 35.6418 94.4667 35.6026 92.1505 34.1143C92.1505 34.1143 87.4271 31.3335 77.2084 31.3335C71.4859 31.3335 67.7163 32.9393 63.3563 34.8585C58.633 36.856 53.3192 39.1668 45.4167 39.1668C43.7817 39.1668 42.283 39.1668 40.875 39.0101V31.1376C42.2375 31.3335 43.7363 31.3335 45.4167 31.3335C51.1392 31.3335 54.9088 29.7276 59.2688 27.8476C63.9921 25.811 69.3513 23.5002 77.2084 23.5002V15.6668H31.7917V78.3334H77.2084V70.5001C84.0209 70.5001 86.1555 71.6359 86.2917 71.7143ZM77.2084 39.1668C69.3513 39.1668 63.9921 41.4776 59.2688 43.5143C54.9088 45.3943 51.1392 47.0001 45.4167 47.0001C43.7363 47.0001 42.2375 47.0001 40.875 46.8043V54.6768C42.283 54.8335 43.7817 54.8335 45.4167 54.8335C53.3192 54.8335 58.633 52.5226 63.3563 50.5251C67.7163 48.6451 71.4859 47.0001 77.2084 47.0001C87.4271 47.0001 92.1505 49.781 92.1505 49.781C94.4667 51.3085 96.8284 51.3085 98.5996 49.781C100.371 48.2535 100.371 45.786 98.5996 44.2193C97.6459 43.3968 91.9688 39.1668 77.2084 39.1668ZM77.2084 54.8335C69.3513 54.8335 63.9921 57.1443 59.2688 59.181C54.9088 61.061 51.1392 62.6668 45.4167 62.6668C43.7363 62.6668 42.2375 62.6668 40.875 62.471V70.3434C42.283 70.5001 43.7817 70.5001 45.4167 70.5001C53.3192 70.5001 58.633 68.1893 63.3563 66.1918C67.7163 64.3118 71.4859 62.6668 77.2084 62.6668C87.4271 62.6668 92.1505 65.4476 92.1505 65.4476C94.4667 66.9751 96.8284 66.9751 98.5996 65.4476C100.371 63.9201 100.371 61.4526 98.5996 59.886C97.6459 59.0635 91.9688 54.8335 77.2084 54.8335Z" fill="#40F99B"/>
</svg>
