<?xml version="1.0" encoding="utf-8"?>
<!-- Generator: Adobe Illustrator 23.1.1, SVG Export Plug-In . SVG Version: 6.00 Build 0)  -->
<svg version="1.1" id="Calque_1" xmlns="http://www.w3.org/2000/svg" xmlns:xlink="http://www.w3.org/1999/xlink" x="0px" y="0px"
	 viewBox="0 0 840 840" style="enable-background:new 0 0 840 840;" xml:space="preserve">
<g>
	<path d="M586.38,672.54c-0.13,21.6-0.24,43.2-0.72,64.8c-0.2,8.89-3.64,12.28-12.15,14.68c-9.52,2.68-19.12,3.77-29.03,3.73
		c-53.97-0.18-107.94,0.01-161.92-0.12c-32.93-0.08-65.86-0.32-98.78-0.93c-5.31-0.09-10.73-2.03-15.78-3.96
		c-1.69-0.65-3.38-3.89-3.4-5.96c-0.24-23.95-0.15-47.9-0.15-71.51c11.78,0,22.74-0.12,33.69,0.03c14.31,0.2,28.62,0.56,42.93,0.95
		c3.81,0.1,7.62,0.82,11.43,0.83c44.06,0.08,88.13,0.39,132.19,0c27.48-0.24,54.92-1.96,81.87-7.98c6.13-1.37,12.07-3.59,18.93-5.68
		C585.79,664.97,586.4,668.76,586.38,672.54z"/>
</g>
</svg>
