<?xml version="1.0" encoding="utf-8"?>
<!-- Generator: Adobe Illustrator 23.1.1, SVG Export Plug-In . SVG Version: 6.00 Build 0)  -->
<svg version="1.1" id="Calque_1" xmlns="http://www.w3.org/2000/svg" xmlns:xlink="http://www.w3.org/1999/xlink" x="0px" y="0px"
	 viewBox="0 0 840 840" style="enable-background:new 0 0 840 840;" xml:space="preserve">
<g>
	<path d="M577.99,275.1c-0.72,4.07-1.01,8.26-1.04,12.39c-0.26,40.58,4.61,80.8,8.49,121.09c3.74,38.98,7.56,77.94,11.22,116.92
		c0.16,1.73-0.51,4.05-1.66,5.3c-2.57,2.79-3.3,5.78-3.32,9.48c-0.17,28.29-0.69,56.58-0.75,84.87c-0.03,12.23-2.05,24-4.56,35.94
		c-1.49,7.05-5.5,9.36-10.69,11.33c-14.4,5.48-29.56,6.51-44.74,6.44c-35.82-0.16-71.64-0.67-107.46-1.09
		c-51.65-0.59-103.3-1.23-154.95-1.85c-0.99-0.01-1.99-0.09-4.36-0.21c-0.46-10.36-1.1-20.43-1.3-30.51
		c-0.36-18.28,0.9-36.71-1.07-54.8c-1.56-14.33-0.6-28.55-1.66-42.76c-0.65-8.71-2.32-17.34-3.51-26.01
		c-1.47-10.81-2.72-21.65-4.44-32.41c-2.18-13.54-4.73-27.03-7.14-40.54c-0.18-0.97-0.74-1.92-0.73-2.87
		c0.25-18.96-7.67-36.26-11.06-54.47c-2.24-12.01-4.85-23.95-7.05-35.96c-2.11-11.53-4.12-23.09-5.75-34.7
		c-1.11-7.85-1.34-15.83-2.26-23.71c-0.97-8.36-2.28-16.69-3.45-25.03c-0.14-0.98-0.49-1.96-0.47-2.93
		c0.57-21.63,1.15-43.26,1.81-64.88c0.12-3.97,0.13-8.05,1.11-11.85c1.1-4.24,2.88-8.42,5-12.27c2.85-5.18,6.23-10.07,9.56-14.97
		c1.47-2.16,3-4.7,5.15-5.92c18.58-10.5,38.06-18.81,58.75-24.38c15.57-4.19,30.91-9.21,46.29-14.08c2.15-0.68,3.91-2.62,5.52-3.74
		c0,6-0.94,12.54,0.21,18.68c2.02,10.79,9.82,17.18,19.49,21.5c17.79,7.95,35.55,7.98,53.67,0.79
		c14.83-5.89,28.13-13.92,39.88-24.68c6.36-5.82,13.11-11.19,19.47-17c2.38-2.17,4.14-5.01,6.6-8.05c2.81,7.31,9.15,7.32,14.81,8.66
		c6.39,1.5,12.73,3.26,19.18,4.5c5.25,1.01,10.75,0.87,15.91,2.18c13.69,3.5,27.46,6.93,40.81,11.51
		c9.45,3.23,18.68,7.61,27.27,12.7c9.92,5.88,17.84,14.29,24.83,23.56c2.86,3.8,6.54,6.99,11.07,11.75
		c-1.86,1.23-3.76,2.28-5.42,3.62c-14.64,11.84-29.34,23.61-43.75,35.73c-2.43,2.04-4.49,5.43-5.15,8.53
		C583.24,245.57,580.6,260.33,577.99,275.1z"/>
</g>
</svg>
