<?xml version="1.0" encoding="utf-8"?>
<!-- Generator: Adobe Illustrator 23.1.1, SVG Export Plug-In . SVG Version: 6.00 Build 0)  -->
<svg version="1.1" id="Calque_1" xmlns="http://www.w3.org/2000/svg" xmlns:xlink="http://www.w3.org/1999/xlink" x="0px" y="0px"
	 viewBox="0 0 840 840" style="enable-background:new 0 0 840 840;" xml:space="preserve">
<g>
	<path d="M486.05,113.59c-17.21,17.81-35.68,33.92-58.42,44.5c-20.96,9.74-42.01,10.99-63.08,0.72
		c-13.34-6.5-20.55-17.06-19.57-32.39c0.02-0.33-0.08-0.72,0.05-0.99c5.95-12.32-2.33-22.28-5.56-33.05
		c-0.95-3.17-3.07-6.09-3.51-9.28c-0.41-2.88-0.1-6.49,1.35-8.9c11.24-18.72,26.19-32.71,49-35.36c12.52-1.45,25.1-2.31,34.27-3.13
		c16.76,1.03,30.07,1.46,43.29,2.8c9,0.92,9.59,2.41,10.54,11.25c0.79,7.4,2.19,14.75,3.05,22.15c0.63,5.37,1.39,10.82,1.06,16.17
		c-0.48,7.9,4.1,13.46,7.79,19.44C487.79,109.91,488.04,111.52,486.05,113.59z"/>
</g>
</svg>
