<svg width="95" height="82" viewBox="0 0 95 82" fill="none" xmlns="http://www.w3.org/2000/svg">
<path d="M94.3214 18.5343C88.8929 26.8748 78.7143 35.2152 67.8571 35.2152C57.6786 35.2152 51.5714 30.5816 46.1429 26.8748C40.7143 24.0946 35.2857 19.461 26.4643 19.461C18.3214 19.461 10.8571 25.9481 6.78571 31.5084L0 17.6076C6.10714 9.26717 15.6071 0 26.4643 0C36.6429 0 42.75 5.5603 48.1786 8.34045C53.6071 11.1206 59.0357 16.6809 67.8571 16.6809C76 16.6809 83.4643 9.26716 87.5357 3.70687L94.3214 18.5343ZM95 63.9434C88.8929 72.2839 79.3929 81.551 68.5357 81.551C58.3571 81.551 52.25 76.9174 46.8214 73.2106C41.3929 70.4304 35.9643 64.8701 27.1429 64.8701C19 64.8701 11.5357 72.2839 7.46428 77.8442L0.678571 63.0167C6.78571 54.6763 16.2857 45.4091 27.1429 45.4091C37.3214 45.4091 43.4286 50.0427 48.8571 53.7495C54.2857 56.5297 59.7143 61.1633 68.5357 61.1633C76.6786 61.1633 84.1429 53.7495 88.2143 48.1892L95 63.9434Z" fill="#F85A3E"/>
</svg>
