<svg width="121" height="94" viewBox="0 0 121 94" fill="none" xmlns="http://www.w3.org/2000/svg">
<path d="M95.4081 71.6974V78.3151C95.4081 80.3922 94.3596 82.3841 92.4932 83.8529C90.6268 85.3215 88.0954 86.1467 85.4559 86.1467H35.6949C33.0555 86.1467 30.5241 85.3215 28.6577 83.8529C26.7913 82.3841 25.7427 80.3922 25.7427 78.3151V63.8267C23.4537 63.1219 20.5178 62.652 15.7906 62.652C14.4708 62.652 13.2051 62.2394 12.2719 61.5051C11.3387 60.7707 10.8145 59.7747 10.8145 58.7362C10.8145 57.6977 11.3387 56.7017 12.2719 55.9673C13.2051 55.233 14.4708 54.8204 15.7906 54.8204C19.871 54.8204 23.1054 55.1337 25.7427 55.6427V48.1636C23.4537 47.4588 20.5178 46.9889 15.7906 46.9889C14.4708 46.9889 13.2051 46.5763 12.2719 45.842C11.3387 45.1076 10.8145 44.1116 10.8145 43.0731C10.8145 42.0345 11.3387 41.0386 12.2719 40.3042C13.2051 39.5699 14.4708 39.1573 15.7906 39.1573C19.871 39.1573 23.1054 39.4706 25.7427 39.9796V32.5005C23.4537 31.7956 20.5178 31.3257 15.7906 31.3257C14.4708 31.3257 13.2051 30.9132 12.2719 30.1788C11.3387 29.4445 10.8145 28.4485 10.8145 27.41C10.8145 26.3714 11.3387 25.3754 12.2719 24.6411C13.2051 23.9067 14.4708 23.4942 15.7906 23.4942C19.871 23.4942 23.1054 23.8074 25.7427 24.3165V15.6626C25.7427 13.5856 26.7913 11.5936 28.6577 10.1249C30.5241 8.65616 33.0555 7.83105 35.6949 7.83105H85.4559C88.0954 7.83105 90.6268 8.65616 92.4932 10.1249C94.3596 11.5936 95.4081 13.5856 95.4081 15.6626V24.1207C104.266 25.3346 108.047 27.919 108.893 28.5455C110.834 30.0727 110.834 32.5788 108.893 34.1059C106.953 35.6331 104.365 35.5939 101.827 34.1059C101.827 34.1059 96.6522 31.3257 85.4559 31.3257C79.1861 31.3257 75.0559 32.9312 70.2788 34.8499C65.1037 36.847 59.2817 39.1573 50.6232 39.1573C48.8318 39.1573 47.1897 39.1573 45.6471 39.0007V31.1299C47.14 31.3257 48.7821 31.3257 50.6232 31.3257C56.8931 31.3257 61.0233 29.7203 65.8003 27.8407C70.9755 25.8045 76.8473 23.4942 85.4559 23.4942V15.6626H35.6949V78.3151H85.4559V70.4835C92.9201 70.4835 95.2588 71.6191 95.4081 71.6974ZM85.4559 39.1573C76.8473 39.1573 70.9755 41.4676 65.8003 43.5038C61.0233 45.3834 56.8931 46.9889 50.6232 46.9889C48.7821 46.9889 47.14 46.9889 45.6471 46.7931V54.6638C47.1897 54.8204 48.8318 54.8204 50.6232 54.8204C59.2817 54.8204 65.1037 52.5101 70.2788 50.5131C75.0559 48.6335 79.1861 46.9889 85.4559 46.9889C96.6522 46.9889 101.827 49.7691 101.827 49.7691C104.365 51.2962 106.953 51.2962 108.893 49.7691C110.834 48.2419 110.834 45.775 108.893 44.2087C107.848 43.3863 101.628 39.1573 85.4559 39.1573ZM85.4559 54.8204C76.8473 54.8204 70.9755 57.1307 65.8003 59.1669C61.0233 61.0465 56.8931 62.652 50.6232 62.652C48.7821 62.652 47.14 62.652 45.6471 62.4562V70.3269C47.1897 70.4835 48.8318 70.4835 50.6232 70.4835C59.2817 70.4835 65.1037 68.1732 70.2788 66.1762C75.0559 64.2966 79.1861 62.652 85.4559 62.652C96.6522 62.652 101.827 65.4322 101.827 65.4322C104.365 66.9593 106.953 66.9593 108.893 65.4322C110.834 63.905 110.834 61.4381 108.893 59.8718C107.848 59.0495 101.628 54.8204 85.4559 54.8204Z" fill="#F85A3E"/>
</svg>
