<?xml version="1.0" encoding="utf-8"?>
<!-- Generator: Adobe Illustrator 23.1.1, SVG Export Plug-In . SVG Version: 6.00 Build 0)  -->
<svg version="1.1" id="Calque_1" xmlns="http://www.w3.org/2000/svg" xmlns:xlink="http://www.w3.org/1999/xlink" x="0px" y="0px"
	 viewBox="0 0 840 840" style="enable-background:new 0 0 840 840;" xml:space="preserve">
<style type="text/css">
	.st0{fill:#FFFFFF;}
</style>
<g>
	<path d="M708.91,701.23c-0.42-19.1-0.17-38.15-2.52-57.24c-2.47-20.11-2.58-40.5-4.42-60.7c-1.74-19.01-4.4-37.94-6.62-56.91
		c-2.13-18.35-5.3-36.65-6.1-55.06c-1.88-43.29-6.08-86.27-13.29-128.99c-5.71-33.85-11.23-67.73-16.74-101.61
		c-2.53-15.57-5.05-31.1-10.35-46.08c-2.63-7.44-6.85-13.07-14.13-16.71c4.46,7.06,8.58,14.23,8.75,21.13
		c-3.24-6-5.89-14.39-11.34-20.15c-8.91-9.44-11.73-24.43-26.47-28.72c-4.78-1.4-8.98-4.92-13.35-7.62
		c-3.34-2.06-6.29-4.92-9.84-6.4c-4.67-1.94-9.77-2.84-14.67-4.26c-9.34-2.69-18.57-5.86-28.02-8.05
		c-16.58-3.84-33.27-7.27-50-10.39c-1.96-0.36-4.5,2.36-6.77,3.65c1.64,1.25,3.11,3.18,4.95,3.65c15.31,3.91,30.87,6.97,46.02,11.42
		c28.47,8.36,57.92,14.95,79.67,37.66c0.45,0.48,1.17,0.74,1.53,1.26c2.32,3.33,4.58,6.7,6.85,10.05
		c6.84,4.53,8.73,11.68,10.13,19.11c4.21,22.29,12.67,43.81,12.19,66.96c-0.02,1.11,0.61,2.23,0.96,3.34
		c0.63,1.99,1.59,3.93,1.89,5.97c2.93,20.43,5.66,40.88,8.64,61.3c2.22,15.13,5.35,30.14,6.98,45.33
		c3.19,29.76,5.52,59.61,8.38,89.4c2.82,29.5,5.86,58.98,8.76,88.47c0.62,6.27,0.7,12.61,1.58,18.84
		c1.16,8.18,3.26,16.23,4.24,24.42c1.97,16.48,1.91,33.13,3.36,49.67c1.92,22.04,3.19,44.14,4.94,66.2
		c0.17,2.12,1.61,5.82,2.64,5.89c3.18,0.21,6.28-1.22,6.33-5.38c0.05-3.73,0.01-7.46,0.01-11.19c0.36-0.01,0.71-0.02,1.07-0.02
		c0.4,3.8,0.8,7.59,1.2,11.39c0.67,0.13,1.33,0.26,2,0.39c0.86-2.54,2.31-5.06,2.42-7.64C709.94,709.5,709,705.36,708.91,701.23z
		 M654.95,263.41c0.63-0.07,1.26-0.13,1.88-0.2c0.62,8.67,1.24,17.34,1.85,26.02C657.44,280.62,656.2,272.02,654.95,263.41z
		 M658.73,289.58c0-0.01-0.01-0.03-0.01-0.04c-0.01-0.01-0.01-0.01-0.02-0.01v-0.03c-0.01-0.08-0.01-0.15-0.02-0.23l0.03,0.18
		c0,0.03,0.01,0.06,0.01,0.09c0.19,0.18,0.44,0.36,0.68,0.54c0.42,0.3,0.81,0.6,0.86,0.95c2.02,13.97,3.95,27.95,4.78,42.1
		C662.94,318.61,660.83,304.1,658.73,289.58z M677.7,433.11c0.44-0.02,0.88-0.04,1.32-0.07c0.74,10.84,1.47,21.68,2.2,32.51
		c-0.31,0.03-0.62,0.05-0.93,0.07C679.42,454.78,678.56,443.95,677.7,433.11z M680.66,473.65c0.46-0.05,0.92-0.09,1.39-0.14
		c3.06,28.34,6.12,56.69,9.18,85.04c-0.58,0.08-1.16,0.15-1.74,0.23C686.55,530.4,683.6,502.03,680.66,473.65z M701.67,702.65
		c-0.23-8.77-0.16-17.56-0.75-26.3c-1.47-21.68-3.14-43.35-4.95-65.01c-0.7-8.41-2.01-16.76-3.04-25.14
		c-0.77-6.27-1.53-12.53-1.91-18.83C695.2,572.7,704.17,680.17,701.67,702.65z M622.05,181.16c-0.02-0.01-0.05-0.02-0.07-0.04
		l0.13,0.14C622.09,181.23,622.06,181.19,622.05,181.16z"/>
	<path d="M622.11,181.26c-0.04-0.03-0.07-0.06-0.11-0.1c-0.01-0.01-0.01-0.03-0.02-0.04L622.11,181.26z"/>
	<path d="M685.84,730.85c-2.91,0.36-6.74,2.09-7.64-2.8c-1.74-9.48-3.08-19.04-4.91-28.5c-2.54-13.24-0.94-26.6-0.96-39.83
		c-0.03-23.56-2.59-46.87-4.51-70.25c-1.55-18.92-3.1-37.84-4.9-56.74c-1.44-15.07-3.37-30.09-4.89-45.14
		c-1.98-19.48-3.73-38.98-5.64-58.46c-3.03-30.94-8.96-61.46-13.66-92.15c-5.55-36.2-9.78-72.6-14.87-108.87
		c-0.94-6.65-3.29-13.09-4.93-19.64c-0.91-3.61-0.85-7.76-2.69-10.79c-10.68-17.65-27.31-28.24-45.5-36.59
		c-26.54-12.19-54.87-19.2-82.61-27.93c-4.08-1.28-8.21-2.63-11.95-4.64c-1.3-0.69-2.55-4.07-1.94-5.18c1.11-2,2.77-3.88,6.45-2.41
		c5.92,2.37,12.37,3.37,18.59,4.98c14.98,3.87,30.33,6.69,44.83,11.87c23.45,8.37,46.93,17.14,66.51,33.4
		c3.88,3.22,7.59,6.64,11.38,9.98c2.57,6.29,6.25,12.35,7.48,18.88c3.36,17.93,5.58,36.07,8.44,54.1c2.2,13.8,4.98,27.51,6.99,41.33
		c2.58,17.77,4.37,35.65,7.08,53.4c1.1,7.22,3.86,14.17,5.56,21.31c0.69,2.88,0.6,5.95,0.83,8.94c1.59,20.66,2.91,41.33,4.81,61.96
		c2.59,28.12,5.81,56.18,8.4,84.3c3.99,43.26,7.86,86.55,11.39,129.85c1.28,15.75,1.14,31.61,2.24,47.37
		c0.55,7.75,2.17,15.46,3.86,23.06C689.85,729.09,688.77,730.5,685.84,730.85z"/>
	<path class="st0" d="M658.73,289.58c-0.02-0.01-0.03-0.02-0.04-0.03l0.01-0.02v-0.03c0.01-0.03,0.01-0.05,0.01-0.05
		c0,0.03,0.01,0.06,0.01,0.09C658.72,289.55,658.73,289.57,658.73,289.58z"/>
	<path class="st0" d="M658.71,289.45c0,0,0,0.02-0.01,0.05c-0.01-0.08-0.01-0.15-0.02-0.23L658.71,289.45z"/>
</g>
</svg>
