<?xml version="1.0" encoding="utf-8"?>
<!-- Generator: Adobe Illustrator 23.1.1, SVG Export Plug-In . SVG Version: 6.00 Build 0)  -->
<svg version="1.1" id="Calque_1" xmlns="http://www.w3.org/2000/svg" xmlns:xlink="http://www.w3.org/1999/xlink" x="0px" y="0px"
	 viewBox="0 0 840 840" style="enable-background:new 0 0 840 840;" xml:space="preserve">
<g>
	<path d="M700.66,724.24c-15.46,6.75-31.37,10.95-48.28,11.24c-2.5-0.12-5-0.21-7.49-0.35c-6.8-0.39-7.35-1.27-8.64-8.14
		c-2.2-11.7-4.88-23.32-7.27-34.99c-2.04-9.92-3.9-19.87-5.93-29.79c-4.43-21.66-8.98-43.29-13.36-64.95
		c-2.57-12.69-4.51-25.51-7.49-38.09c-2.18-9.23-5.94-18.07-8.34-27.26c-2.06-7.86-3.66-15.92-4.63-23.99
		c-2.62-21.63-5.07-43.28-7.07-64.97c-2.8-30.17-5.25-60.38-7.61-90.59c-1.43-18.25-3.75-36.57-3.15-54.78
		c0.52-16.16,4.51-32.2,6.97-48.3c0.62-4.1,1.23-8.21,1.81-12.32c1.4-9.94,5.36-18.44,13.59-24.63
		c13.18-9.91,26.44-19.72,39.39-29.93c3.71-2.92,5.98-2.24,8.78,0.74c6.55,6.95,9.25,15.81,11.57,24.58
		c3.12,11.84,5.14,23.97,7.66,35.97c2.06,9.82,4.32,19.62,6.22,29.48c1.33,6.96,2.15,14.03,3.31,21.03
		c1.92,11.6,4.14,23.15,5.85,34.78c2.31,15.8,4.5,31.63,6.3,47.49c1.9,16.6,3.36,33.24,4.85,49.87c0.88,9.86,1.26,19.76,2.21,29.61
		c1.27,13.27,3.04,26.49,4.28,39.76c0.82,8.79,0.86,17.66,1.63,26.47c0.86,9.72,2.18,19.41,3.25,29.12
		c0.97,8.88,2.14,17.75,2.76,26.65c1.77,25.52,3.35,51.05,4.92,76.59c0.45,7.23,0.55,14.48,0.94,21.72
		c0.56,10.3,1.23,20.59,1.87,30.88C710.13,716.36,709.67,720.3,700.66,724.24z"/>
</g>
</svg>
