<?xml version="1.0" encoding="utf-8"?>
<!-- Generator: Adobe Illustrator 16.0.0, SVG Export Plug-In . SVG Version: 6.00 Build 0)  -->
<!DOCTYPE svg PUBLIC "-//W3C//DTD SVG 1.1//EN" "http://www.w3.org/Graphics/SVG/1.1/DTD/svg11.dtd">
<svg version="1.1" id="Ebene_1" xmlns="http://www.w3.org/2000/svg" xmlns:xlink="http://www.w3.org/1999/xlink" x="0px" y="0px"
	 width="456.6px" height="181.8px" viewBox="0 0 456.6 181.8" style="enable-background:new 0 0 456.6 181.8;" xml:space="preserve"
	>
<style type="text/css">
<![CDATA[
	.st0{fill:#1A1A18;}
	.st1{fill:none;}
	.st2{fill:#00A139;}
]]>
</style>
<g>
	<title>background</title>
	<polygon id="canvas_background" class="st1" points="-1,-1 -1,-1 -1,-1 	"/>
</g>
<g>
	<rect x="100.9" y="144.8" class="st0" width="3" height="21.3"/>
	<g>
		<path class="st0" d="M111.2,166.1h-2.8v-14.5h2.8v2.1c1.1-1.8,2.8-2.5,4.4-2.5c3.5,0,5.2,2.5,5.2,5.7v9.2H118v-8.7
			c0-2-0.8-3.6-3.4-3.6c-2.2,0-3.4,1.8-3.4,4V166.1z"/>
		<path class="st0" d="M127.6,166.1h-2.8v-14.5h2.8v2.1c1.1-1.8,2.8-2.5,4.4-2.5c3.5,0,5.2,2.5,5.2,5.7v9.2h-2.8v-8.7
			c0-2-0.8-3.6-3.4-3.6c-2.2,0-3.4,1.8-3.4,4V166.1z"/>
		<path class="st0" d="M151.9,158.8c0-3.3-2.1-5.1-4.5-5.1s-4.5,1.8-4.5,5.1c0,3.4,2.1,5.2,4.5,5.2S151.9,162.2,151.9,158.8
			 M154.8,158.8c0,4.4-3.1,7.7-7.4,7.7s-7.4-3.3-7.4-7.7c0-4.4,3.1-7.7,7.4-7.7S154.8,154.4,154.8,158.8"/>
	</g>
	<polygon class="st0" points="164.3,166.1 161.4,166.1 155.5,151.6 158.7,151.6 162.8,162.8 167,151.6 170,151.6 	"/>
	<g>
		<path class="st0" d="M180.5,159.9v-0.7l-4.4,0.7c-1.2,0.2-2.1,0.9-2.1,2.2c0,1.1,0.9,2.1,2.3,2.1
			C178.7,164.1,180.5,163,180.5,159.9 M175.5,157.8l3.9-0.6c0.9-0.1,1.1-0.6,1.1-1.1c0-1.4-0.9-2.6-3.1-2.6c-2,0-3.1,1.2-3.3,2.9
			l-2.7-0.6c0.3-2.8,2.8-4.7,5.9-4.7c4.3,0,6,2.5,6,5.3v7.2c0,1.3,0.1,2,0.2,2.4h-2.8c-0.1-0.4-0.2-0.9-0.2-2
			c-0.6,1-2.1,2.4-4.7,2.4c-2.9,0-4.8-2-4.8-4.3C171.1,159.6,173,158.2,175.5,157.8"/>
		<path class="st0" d="M191.1,151.6h3.1v2.6h-3.1v7.5c0,1.3,0.5,2,2,2c0.4,0,0.9-0.1,1.1-0.1v2.4c-0.2,0.1-1,0.3-1.9,0.3
			c-2.5,0-4-1.5-4-4.1v-7.9h-2.8v-2.6h0.8c1.6,0,2.2-1,2.2-2.2V147h2.6V151.6z"/>
		<path class="st0" d="M197,151.6h2.8v14.5H197V151.6z M198.4,144.1c1.1,0,2,0.9,2,2c0,1.1-0.9,2-2,2c-1.1,0-2-0.9-2-2
			C196.4,145,197.3,144.1,198.4,144.1"/>
	</g>
	<polygon class="st0" points="210.8,166.1 208,166.1 202.1,151.6 205.3,151.6 209.4,162.8 213.6,151.6 216.6,151.6 	"/>
	<g>
		<path class="st0" d="M228.3,157.4c-0.1-2.1-1.4-3.7-4-3.7c-2.4,0-3.8,1.8-3.9,3.7H228.3z M231.1,162c-0.8,2.6-3.1,4.6-6.5,4.6
			c-3.9,0-7.3-2.8-7.3-7.7c0-4.5,3.3-7.6,6.9-7.6c4.4,0,6.9,3.1,6.9,7.6c0,0.4,0,0.7-0.1,0.9h-10.9c0.1,2.6,1.9,4.4,4.4,4.4
			c2.3,0,3.5-1.3,4.1-2.9L231.1,162z"/>
		<path class="st0" d="M249.4,153.7c-2.5,0-4.3,2-4.3,5.1c0,3.1,1.8,5.2,4.3,5.2c2.6,0,4.3-2,4.3-5.2
			C253.6,155.6,252,153.7,249.4,153.7 M242.3,166.1v-21.8h2.8v9.3c0.7-1.3,2.4-2.5,4.8-2.5c4.4,0,6.6,3.4,6.6,7.6
			c0,4.3-2.4,7.7-6.7,7.7c-2.1,0-3.8-0.9-4.7-2.5v2.1H242.3z"/>
	</g>
	<polygon class="st0" points="259.8,172.1 263.4,164.5 257.2,151.6 260.5,151.6 265,161.6 269.3,151.6 272.3,151.6 262.9,172.1 	"/>
	<path class="st0" d="M285.4,166.1h-2.8v-14.5h2.8v2.1c1.1-1.8,2.8-2.5,4.4-2.5c3.5,0,5.2,2.5,5.2,5.7v9.2h-2.8v-8.7
		c0-2-0.8-3.6-3.4-3.6c-2.2,0-3.4,1.8-3.4,4V166.1z"/>
	<path class="st0" d="M307.5,159.9v-0.7l-4.4,0.7c-1.2,0.2-2.1,0.9-2.1,2.2c0,1.1,0.9,2.1,2.3,2.1
		C305.6,164.1,307.5,163,307.5,159.9 M302.5,157.8l3.9-0.6c0.9-0.1,1.1-0.6,1.1-1.1c0-1.4-0.9-2.6-3.1-2.6c-2,0-3.1,1.2-3.3,2.9
		l-2.7-0.6c0.3-2.8,2.8-4.7,5.9-4.7c4.3,0,6,2.5,6,5.3v7.2c0,1.3,0.1,2,0.2,2.4h-2.8c-0.1-0.4-0.2-0.9-0.2-2c-0.6,1-2.1,2.4-4.7,2.4
		c-2.9,0-4.8-2-4.8-4.3C298.1,159.6,300,158.2,302.5,157.8"/>
	<path class="st0" d="M318,151.6h3.1v2.6H318v7.5c0,1.3,0.5,2,2,2c0.4,0,0.9-0.1,1.1-0.1v2.4c-0.2,0.1-1,0.3-1.9,0.3
		c-2.5,0-4-1.5-4-4.1v-7.9h-2.8v-2.6h0.8c1.6,0,2.2-1,2.2-2.2V147h2.6V151.6z"/>
	<path class="st0" d="M329.3,166.5c-3.4,0-5.4-2.5-5.4-5.8v-9.1h2.8v8.7c0,2,0.9,3.7,3.3,3.7c2.3,0,3.4-1.5,3.4-3.7v-8.7h2.8v11.8
		c0,1.1,0.1,2.2,0.2,2.7h-2.7c-0.1-0.3-0.1-1.1-0.1-1.7C332.8,165.8,331,166.5,329.3,166.5"/>
	<path class="st0" d="M348.4,154.5c-0.4-0.1-0.8-0.1-1.2-0.1c-2.4,0-4,1.3-4,4.4v7.2h-2.8v-14.5h2.8v2.5c1.1-2.2,2.9-2.8,4.3-2.8
		c0.4,0,0.8,0.1,0.9,0.1V154.5z"/>
	<path class="st0" d="M360.8,157.4c-0.1-2.1-1.4-3.7-4-3.7c-2.4,0-3.8,1.8-3.9,3.7H360.8z M363.6,162c-0.8,2.6-3.1,4.6-6.5,4.6
		c-3.9,0-7.3-2.8-7.3-7.7c0-4.5,3.3-7.6,6.9-7.6c4.4,0,6.9,3.1,6.9,7.6c0,0.4,0,0.7-0.1,0.9h-10.9c0.1,2.6,1.9,4.4,4.4,4.4
		c2.3,0,3.5-1.3,4.1-2.9L363.6,162z"/>
	<path class="st2" d="M365.4,111.1H67.7c-27.7,0-46.2-17.4-46.2-45.6V17.6c0-3.5-2.9-6.4-6.4-6.4c-3.5,0-6.4,2.9-6.4,6.4v48.6
		c0,35.3,23.3,57.7,59.7,57.7h297c3.5,0,6.4-2.9,6.4-6.4C371.8,113.9,369,111.1,365.4,111.1"/>
	<polygon class="st0" points="51.8,82.4 51.8,14.9 66.6,14.9 66.6,68.2 95.7,68.2 95.7,82.4 	"/>
	<path class="st0" d="M130.4,53.4c-0.2-4.1-2.7-8-9.6-8c-6.1,0-9.2,4-9.5,8H130.4z M143.6,68.9c-2.3,8.2-9.9,15.1-21.9,15.1
		c-13.1,0-24.8-9.4-24.8-25.3c0-15.3,11.4-25.1,23.7-25.1c14.7,0,23.8,9.2,23.8,24.5c0,2-0.2,4-0.3,4.6h-33.1c0.3,5.4,5.2,9,10.8,9
		c5.3,0,8.2-2.6,9.6-6.3L143.6,68.9z"/>
	<path class="st0" d="M163.8,82.4H149V35.1h14.2v5.4c2.7-4.5,8.6-6.7,13.5-6.7c12,0,17.5,8.5,17.5,18.9v29.6h-14.8V55.3
		c0-4.7-2.5-8.2-7.7-8.2c-4.8,0-7.8,3.5-7.8,8.3V82.4z"/>
	<polygon class="st0" points="198.9,82.4 198.9,69.8 219.7,47.3 199.6,47.3 199.6,35.1 238.1,35.1 238.1,47 216.3,70.2 238.7,70.2 
		238.7,82.4 	"/>
	<path class="st0" d="M244.7,35.1h14.9v47.2h-14.9V35.1z M252.2,12c4.8,0,8.6,3.8,8.6,8.5c0,4.7-3.8,8.5-8.6,8.5
		c-4.6,0-8.4-3.8-8.4-8.5C243.7,15.9,247.6,12,252.2,12"/>
	<path class="st0" d="M279.9,82.4h-14.2V35.1h14.2v5.4c2.7-4.5,8.3-6.7,13.2-6.7c12,0,17.2,8.5,17.2,18.9v29.6h-14.2V55.3
		c0-4.7-2.8-8.2-8.1-8.2c-4.8,0-8.1,3.5-8.1,8.3V82.4z"/>
	<path class="st0" d="M349.3,57.5c0-6.5-4.7-10.5-10.1-10.5c-5.5,0-10.2,4-10.2,10.5S333.3,68,339.2,68
		C345.1,68,349.3,64,349.3,57.5 M327.2,81.7c1,4.6,4.9,7.9,10.4,7.9c7.3,0,11.9-3.5,11.9-12.1v-2.2c-2,2.6-6,5.4-12.8,5.4
		c-12.6,0-22.2-9.9-22.2-23.1c0-12.5,8.9-23.2,21.9-23.2c7.7,0,11.7,3.4,13.1,5.9v-5h14.2v41.5c0,13.7-7.7,25.5-25.5,25.5
		c-13.7,0-22.4-8.4-23.7-16.9L327.2,81.7z"/>
</g>
</svg>
