<svg width="102" height="85" viewBox="0 0 102 85" fill="none" xmlns="http://www.w3.org/2000/svg">
<path d="M54.8169 6.00513C59.8739 2.71491 65.74 1.0698 72.3647 1.0698C76.0058 1.0698 80.0008 1.93805 84.3498 3.76595C88.6989 5.54816 92.1376 7.65024 94.6661 10.0722C99.8749 15.9215 102.049 22.7304 101.291 30.499C100.482 38.2676 97.6498 44.3454 92.7445 48.641L54.3618 83.3254C53.4009 84.1936 52.1873 84.6049 50.7713 84.6049C49.3553 84.6049 48.1922 84.1936 47.2314 83.3254C46.7643 82.909 46.3975 82.41 46.1538 81.8596C45.9102 81.3091 45.795 80.7191 45.8154 80.1266C45.8154 78.847 46.2706 77.7503 47.2314 76.882L70.4431 55.9069C71.7073 54.9015 71.7073 53.8505 70.4431 52.708C69.1788 51.5656 68.0157 51.5656 66.9032 52.708L43.6915 73.6832C43.2234 74.1092 42.6627 74.4429 42.0447 74.6631C41.4267 74.8834 40.7649 74.9854 40.101 74.9627C38.685 74.9627 37.5219 74.5515 36.5611 73.6832C36.094 73.2669 35.7272 72.7678 35.4835 72.2174C35.2399 71.6669 35.1247 71.0769 35.1451 70.4844C35.1451 69.2048 35.6003 68.1081 36.5611 67.2399L59.7728 46.2647C61.1382 45.1222 61.1382 43.9798 59.7728 42.8374C58.6097 41.6949 57.4971 41.6949 56.2329 42.8374L33.0212 64.041C32.5478 64.4605 31.9862 64.7898 31.3695 65.0096C30.7527 65.2294 30.0935 65.3351 29.4307 65.3206C28.0147 65.3206 26.8011 64.9093 25.7391 64.041C24.7277 63.1728 24.222 62.1217 24.222 60.8422C24.222 59.5627 24.7783 58.4202 25.8908 57.4149L49.153 36.394C50.4173 35.2516 50.4173 34.2005 49.153 33.1952C47.8888 32.1898 46.6751 32.1898 45.5626 33.1952L22.098 54.2617C20.9855 55.1757 19.8224 55.6784 18.5581 55.6784C17.1422 55.6784 15.9285 55.2214 15.0182 54.2617C14.0574 53.3478 13.5517 52.251 13.5517 50.9715C13.5517 49.692 14.0574 48.6409 15.0182 47.7727C30.4927 33.6978 40.0504 25.1981 43.6915 22.045L61.6944 38.1305C63.6667 39.8213 65.9423 40.6896 68.7237 40.6896C72.2636 40.6896 75.0449 39.41 77.1183 36.851C78.5343 34.9774 79.04 32.921 78.6354 30.6361C78.2309 28.3512 77.1689 26.4319 75.4495 24.8325L54.8169 6.00513ZM65.2343 34.9317L43.6915 15.4188L7.88784 47.7727C3.63995 43.8884 1.21259 37.9477 0.656316 29.8593C0.100045 21.8165 2.52741 14.8248 7.88784 8.97547C13.9057 3.58316 21.0866 0.841309 29.4307 0.841309C37.8253 0.841309 44.9557 3.58316 50.7713 8.97547L72.3647 28.4883C73.3256 29.3566 73.7807 30.4076 73.7807 31.6872C73.7807 32.9667 73.3256 34.0634 72.3647 34.9317C71.4039 35.7542 70.2408 36.2112 68.7237 36.2112C67.3583 36.2112 66.1952 35.7542 65.2343 34.9317Z" fill="#F85A3E"/>
</svg>
