<?xml version="1.0" encoding="utf-8"?>
<!-- Generator: Adobe Illustrator 23.1.1, SVG Export Plug-In . SVG Version: 6.00 Build 0)  -->
<svg version="1.1" class="color" xmlns="http://www.w3.org/2000/svg" xmlns:xlink="http://www.w3.org/1999/xlink" x="0px" y="0px"
	 viewBox="0 0 840 840" style="enable-background:new 0 0 840 840;" xml:space="preserve">
<g>
	<path d="M262.78,576.59c-0.05,5.84-1.2,11.68-1.83,17.39c-2.51-2.59-4.21-0.93-5.23,2.17c-7.03,21.17-14.07,42.33-20.98,63.54
		c-4.7,14.4-9.22,28.86-13.76,43.31c-2.2,6.99-4.59,13.93-6.28,21.04c-1,4.19-3.02,5.14-6.95,4.87
		c-16.38-1.13-32.13-5.06-47.77-9.77c-6.31-1.9-12.87-3.37-19.41-3.93c-4.9-0.41-6.14-2.53-5.56-6.61c0.9-6.4,2.13-12.75,3.06-19.15
		c4.63-31.59,9.28-63.17,13.77-94.78c2.32-16.28,4.14-32.64,6.54-48.9c2.71-18.4,5.96-36.72,8.69-55.11
		c2.17-14.63,3.78-29.35,5.85-44c2.29-16.11,4.86-32.18,7.23-48.27c3.06-20.87,5.86-41.78,9.13-62.62
		c4.84-30.88,9.77-61.75,15.1-92.55c2.6-15,6.09-29.84,9.41-44.7c1.04-4.67,2.6-9.27,4.44-13.69c0.64-1.54,2.84-2.43,4.33-3.62
		c1.4,1.84,3.47,3.51,4.01,5.57c0.54,2.08-0.38,4.57-0.77,6.86c-0.75,4.42-0.35,9.64-2.62,13.08c-5.69,8.63-2.37,17.83-3.26,26.71
		c-0.85,8.36-1.6,16.74-1.91,25.12c-0.17,4.58,0.36,9.24,1.09,13.77c1.77,10.96,3.91,21.86,5.76,32.81
		c2.66,15.8,5.24,31.62,7.76,47.45c1.83,11.47,3.45,22.98,5.27,34.46c2.2,13.89,4.62,27.75,6.76,41.65
		c1.88,12.3,3.39,24.66,5.29,36.96c1.43,9.21,3.41,18.34,4.82,27.55c1.87,12.3,2.69,24.82,5.32,36.95
		C263.43,545.59,262.89,561.07,262.78,576.59z"/>
</g>
</svg>
