<?xml version="1.0" encoding="utf-8"?>
<!-- Generator: Adobe Illustrator 23.1.1, SVG Export Plug-In . SVG Version: 6.00 Build 0)  -->
<svg version="1.1" id="Calque_1" xmlns="http://www.w3.org/2000/svg" xmlns:xlink="http://www.w3.org/1999/xlink" x="0px" y="0px"
	 viewBox="0 0 840 840" style="enable-background:new 0 0 840 840;" xml:space="preserve">
<g>
	<path d="M212.98,729.97c-4.7,15.07-9.03,30.26-13.18,45.49c-1.61,5.9-2.09,12.11-3.59,18.05c-1.96,7.78-4.3,9.44-12.22,9.74
		c-2.82,0.11-5.66,0.02-8.48,0.02c-0.07,0.37-0.13,0.74-0.19,1.12c-13.22-2.35-26.45-4.67-39.67-7.07
		c-4.29-0.78-5.79-2.96-5.16-7.74c2.43-18.58,4.67-37.19,6.26-55.85c0.58-6.8-0.66-13.8-1.48-20.65c-0.35-2.96,0.48-4.26,3.24-4
		c2.79,0.26,5.55,0.9,8.3,1.48c5.65,1.18,11.27,2.54,16.93,3.62c15.02,2.89,30.06,5.65,45.09,8.49
		C213.04,723.46,214.43,725.34,212.98,729.97z"/>
</g>
</svg>
