<?xml version="1.0" encoding="utf-8"?>
<!-- Generator: Adobe Illustrator 23.1.1, SVG Export Plug-In . SVG Version: 6.00 Build 0)  -->
<svg version="1.1" id="Calque_1" xmlns="http://www.w3.org/2000/svg" xmlns:xlink="http://www.w3.org/1999/xlink" x="0px" y="0px"
	 viewBox="0 0 840 840" style="enable-background:new 0 0 840 840;" xml:space="preserve">
<g>
	<path d="M214.87,214.44c-0.03-1.85-0.47-3.7-0.72-5.56c-0.55-0.09-1.11-0.19-1.66-0.28c-0.76,2.14-2.02,4.25-2.2,6.44
		c-0.62,7.78-0.86,15.59-1.3,23.39c-0.06,1.16-0.42,2.31-0.64,3.46c-0.39-0.03-0.78-0.07-1.17-0.1v-8.54
		c-0.48,0-0.96,0.01-1.44,0.01c-0.31,2.92-0.48,5.86-0.95,8.76c-4.94,30.3-10.09,60.58-14.85,90.91
		c-3.29,20.93-6.2,41.93-9.02,62.94c-2.77,20.52-5.09,41.1-7.83,61.63c-3,22.53-6.25,45.03-9.41,67.54
		c-1.5,10.65-2.83,21.33-4.7,31.92c-1.23,6.97-3.9,13.71-4.86,20.7c-2.23,16.33-3.69,32.76-5.76,49.12
		c-0.68,5.36-2.54,10.57-3.37,15.92c-2.36,15.23-4.42,30.5-6.7,45.74c-0.91,6.04-2.15,12.04-3.16,18.07
		c-0.21,1.31-0.62,2.98-0.04,3.92c1.17,1.85,2.68,4.1,4.56,4.76c3.24,1.13,3.59-1.81,3.92-4.18c2.19-15.87,4.26-31.76,6.65-47.61
		c0.88-5.87,2.82-11.58,3.78-17.44c2.1-12.8,3.81-25.65,5.8-38.46c3.31-21.38,7.04-42.71,9.96-64.15c2.32-17.1,3.47-34.36,5.55-51.5
		c1.05-8.67,3-17.23,4.55-25.84c1.08,2.17,1.29,4.19,1.05,6.14c-2.81,22.6-5.59,45.21-8.59,67.79c-1.27,9.55-3.39,18.99-4.5,28.56
		c-1.39,12.09-1.53,24.35-3.34,36.38c-2.13,14.11-5.75,28-8.21,42.08c-3.64,20.78-6.87,41.63-10.2,62.47
		c-0.92,5.77,0.32,7.31,6.84,8.4c4.97,0.83,4.54-3.23,5.11-6.16c1.55-8,3.03-16.01,4.47-24.03c5.51-30.75,11.39-61.45,16.34-92.29
		c2.97-18.52,4.73-37.25,6.61-55.93c5.11-50.79,9.91-101.62,15-152.41c1.84-18.37,4.13-36.69,6.22-55.03
		c1.91-16.75,3.72-33.52,5.78-50.26C215.2,259.36,215.2,236.91,214.87,214.44z M182.23,461.67c-0.65-0.05-1.31-0.11-1.96-0.17
		c0.65-7.81,1.11-15.64,2.01-23.43c1.46-12.52,3.26-25,4.84-37.51c0.73-5.72,1.28-11.46,1.96-17.18c1.43-12.11,2.87-24.2,4.36-36.3
		c0.09-0.75,0.6-1.44,0.92-2.16c0.29,0.06,0.59,0.13,0.89,0.19C190.91,383.96,186.57,422.82,182.23,461.67z"/>
	<path d="M340.18,131.21c-3.77,0.57-7.44,1.7-11.16,2.61c-0.09-0.4-0.19-0.81-0.29-1.21c3.97-1.04,7.95-2.06,11.92-3.11
		c4.44-1.17,6.54-4.8,5.53-10.12c-6.77,2.34-13.42,4.84-20.2,6.92c-15.72,4.82-31.48,9.49-47.26,14.1
		c-12.7,3.71-24.1,10.24-36.02,15.69c-10.3,4.72-14.32,13.25-19.52,22.57c6.56,1.92,11.72-1.11,16.71-2.91
		c11.5-4.15,22.36-10.54,34.12-13.42c22.28-5.46,43.82-12.55,64.46-22.46c1.5-0.72,3.48-1.01,4.43-2.16
		c1.09-1.34,1.28-3.41,1.87-5.16C343.23,132.06,341.61,130.99,340.18,131.21z M285.19,147.29c11.6-3.65,22.77-7.16,34.32-10.8
		C315.21,141.21,299.29,146.16,285.19,147.29z"/>
</g>
</svg>
