<?xml version="1.0" encoding="utf-8"?>
<!-- Generator: Adobe Illustrator 23.1.1, SVG Export Plug-In . SVG Version: 6.00 Build 0)  -->
<svg version="1.1" id="Calque_1" xmlns="http://www.w3.org/2000/svg" xmlns:xlink="http://www.w3.org/1999/xlink" x="0px" y="0px"
	 viewBox="0 0 840 840" style="enable-background:new 0 0 840 840;" xml:space="preserve">
<style type="text/css">
	.st0{fill:#FFFFFF;}
</style>
<g>
	<path class="st0" d="M391.02,153.89C390.6,153.62,390.79,153.85,391.02,153.89L391.02,153.89z M391.02,153.89
		C390.6,153.62,390.79,153.85,391.02,153.89L391.02,153.89z"/>
	<path d="M402.1,83.34c-2.44,23.53-4.88,46.96-7.33,70.59c-1.43,0-2.56,0.03-3.7-0.03h-0.01c-4.08-27.48-22.43-45.37-39.33-64.22
		c-0.26,1.92,0.37,3.4,1.29,4.67c8.18,11.32,17.01,22.24,24.41,34.05c4.32,6.91,7.87,15,9.12,22.97
		c1.74,11.06,1.83,22.56,1.14,33.77c-1.94,31.76-5.02,63.44-6.95,95.19c-2.28,37.42-4.9,74.86-5.42,112.33
		c-0.67,47.47,0.78,94.97,1.05,142.47c0.41,73.08,3.18,146.21-2.76,219.42c9.27,2.85,10.28,2.11,10.37-8.12
		c0.31-36.83,0.89-73.65,0.91-110.48c0.03-33.16-0.52-66.31-0.87-99.47c-0.26-25.16-1.24-50.33-0.78-75.47
		c1.15-62.96,1.29-125.96,6.72-188.77c1.75-20.25,3.16-40.52,4.77-60.77c1.76-22.24,3.52-44.47,5.39-66.7
		c0.61-7.29,1.21-14.63,2.46-21.83c2.3-13.23,5.07-26.37,7.66-39.6H402.1z M391.02,153.89C390.79,153.85,390.6,153.62,391.02,153.89
		L391.02,153.89z"/>
	<path d="M573.2,627.96c-0.93-2.23-2.45-4.4-2.69-6.7c-2.7-25.79-11.1-49.87-21.22-73.53c-1.9-4.43-1.95-9.74-2.45-14.68
		c-1.46-14.34-0.54-29.14-6.68-42.64c-6.15-13.5-6.53-28.07-8.97-42.27c-0.67-3.92,0.16-6.54,5.47-6.54
		c0.66,4.28,1.82,8.37,1.83,12.46c0.01,13.26,5.18,25.29,8.17,37.85c1.87,7.86,3.67,15.93,3.93,23.95
		c0.55,17.19,3.96,33.51,10.74,49.34c7.5,17.54,11.97,35.96,13.19,55.05C574.68,622.78,573.66,625.38,573.2,627.96z"/>
</g>
</svg>
